<?xml version="1.0" encoding="utf-8"?>
<!-- Generator: Adobe Illustrator 27.2.0, SVG Export Plug-In . SVG Version: 6.00 Build 0)  -->
<svg version="1.1" id="Capa_1" xmlns="http://www.w3.org/2000/svg" xmlns:xlink="http://www.w3.org/1999/xlink" x="0px" y="0px"
	 viewBox="0 0 595.28 841.89" style="enable-background:new 0 0 595.28 841.89;" xml:space="preserve">
<style type="text/css">
	.st0{fill:none;stroke:#71B62E;stroke-linecap:round;stroke-miterlimit:10;}
	.st1{fill:none;stroke:#71B62E;stroke-miterlimit:10;}
	.st2{fill:#FFFFFF;}
</style>
<path class="st0" d="M307.96,336.74h-17.29c-9.58,0-23.16-0.62-23.16-6.9l-6.17-53.69c0-6.29,7.76-11.38,17.34-11.38h41.13
	c9.58,0,17.34,5.1,17.34,11.38l-7.74,53.69C329.43,336.12,317.54,336.74,307.96,336.74z"/>
<path class="st0" d="M270.93,248.86"/>
<path class="st0" d="M270.82,248.97h58.21c0-5.71-5.92-11.72-14.24-10.53c-11.25-1.27-21.34-1.73-32.6-0.07
	c-6.61-0.95-12.05,4.82-12.12,10.49c0.31,0,0.59,0,0.87,0"/>
<path class="st1" d="M324.16,260.57c-15.45-3.52-33.83-2.61-49.24,0.4c-0.24-0.01-0.45,0.12-0.48,0.31
	c-0.01,0.11-0.02,0.17-0.04,0.29c-0.02,0.19,0.15,0.37,0.39,0.38c15.6-3.09,33.75-3.12,49.48-0.39c0.24-0.02,0.42-0.2,0.39-0.39
	c-0.01-0.12-0.02-0.17-0.04-0.29C324.62,260.69,324.4,260.55,324.16,260.57z"/>
<path class="st2" d="M326.61,255.55c-18.54-2.93-36.14-2.93-54.71,0c-0.23-0.02-0.44,0.14-0.47,0.35c-0.02,0.13-0.02,0.19-0.04,0.32
	c-0.03,0.21,0.14,0.4,0.37,0.42c18.66-2.92,36.36-2.92,54.98,0c0.23-0.02,0.4-0.21,0.37-0.42c-0.02-0.13-0.02-0.19-0.04-0.32
	C327.06,255.69,326.85,255.53,326.61,255.55"/>
<path class="st1" d="M326.61,255.55c-18.54-2.93-36.14-2.93-54.71,0c-0.23-0.02-0.44,0.14-0.47,0.35c-0.02,0.13-0.02,0.19-0.04,0.32
	c-0.03,0.21,0.14,0.4,0.37,0.42c18.66-2.92,36.36-2.92,54.98,0c0.23-0.02,0.4-0.21,0.37-0.42c-0.02-0.13-0.02-0.19-0.04-0.32
	C327.06,255.69,326.85,255.53,326.61,255.55z"/>
<path class="st1" d="M320.16,291.91c-4.82-4.04-12.84-6.69-21.93-6.69c-11.47,0-21.22,4.22-25,10.14
	C288.82,299.98,303.92,294.19,320.16,291.91z"/>
<path class="st1" d="M275.67,307.12c-0.4,0-1.02,0-1.73,0.05c4.2,5.38,13.48,9.12,24.29,9.12c13.34,0,24.36-5.7,26.34-13.15
	C312.94,308.97,291.91,303.95,275.67,307.12z"/>
<path class="st1" d="M320.91,291.91c-15.83,2.28-30.53,8.07-45.72,3.44c-1.05,1.68-1.65,3.5-1.65,5.4c0,2.29,0.85,4.46,2.34,6.41
	c0.69-0.04,1.29-0.05,1.68-0.05c15.82-3.17,36.31,1.85,47.64-3.98c0.2-0.78,0.34-1.57,0.34-2.39
	C325.54,297.46,323.82,294.42,320.91,291.91z"/>
<path class="st1" d="M345.15,277.99c0,0-2.6,12.6,1.45,21.97c4.05,9.37,12.73,17.52,12.73,17.52l14.75-6.3
	c0,0,15.47,5.07,27.19,5.53c11.72,0.46,31.53-0.77,34.42-3.38c2.89-2.61,3.76-26.73,0-35.95c-3.76-9.22-2.6-9.83-5.79-13.67
	c-3.18-3.84-3.47-5.99-5.21-8.45c-1.74-2.46-2.89-8.91-5.35-10.45c-2.46-1.54-3.47-3.07-5.93-3.84c-2.46-0.77-8.24-1.38-9.55-1.84
	c-1.3-0.46-5.79-2.61-7.81-2.77c-2.02-0.15-4.8,4.61-4.8,4.61l-7.49,11.06l9.69,6.15c0,0,6.22-6.3,3.76-7.37
	c-2.46-1.08-4.63,2.92-4.63,2.92l-4.19-2.3l7.81-11.21c0,0-0.07-0.54,0.9-0.14c0.98,0.4,3.36,1.56,4.45,1.84
	c1.08,0.29,6.07,1.38,7.16,1.56c1.08,0.17,4.12,0.86,5.37,1.84c1.25,0.98,3.15,1.67,4.07,4.5s3.09,6.62,3.47,7.43
	c0.38,0.81,4.45,6.57,4.99,7.72c0.54,1.15,4.77,9.97,5.86,14.52c1.08,4.55,2.33,15.44,2.06,17.92c-0.27,2.48-1.08,12.91-1.08,12.91
	s-10.68,3.34-21.59,3.05c-10.9-0.29-20.31-1.5-20.31-1.5s-11.58-2.36-13.91-3.23c-2.33-0.86-3.47-1.32-3.47-1.32l-13.78,6.28
	c0,0-8.3-7.84-10.36-15.1c-2.06-7.26-1.74-5.42-2.06-7.95s0.38-10.95,0.38-10.95s6.24-5.13,12.75-5.42
	c6.51-0.29,12.58,2.36,12.58,2.36l5.7,3.8l-4.66,2.94c0,0-1.19,1.32-0.05,2.3c1.14,0.98,2.44,0.58,2.44,0.58s4.18-3.75,9.49-4.21
	c5.32-0.46,11.99,0,15.89,1.79s9.11,5.7,9.98,6.68c0.87,0.98,2.82,2.71,2.82,2.71s2.22,3,3.69,1.5c1.46-1.5-0.11-2.94-0.11-2.94
	s-7.97-7.72-8.73-7.66c-0.76,0.06,2.01-14.98,2.01-14.98l-0.05-7.2c0,0-1.19-10.14-3.74-9.33c-2.55,0.81-1.47,2.71-1.47,2.71
	l1.03,3.4c0,0-4.77,2.36-7.86,2.71c-3.09,0.34-6.18,0.12-8.03-0.52c-1.84-0.63-0.11-3-0.11-3"/>
<path class="st1" d="M345.02,278.67l0.34-1.14l4.34-3c0,0,5.68-3.65,10.81-3.73c5.13-0.08,7.45,0.23,7.45,0.23s5.64,1.23,8.57,3.19
	c2.93,1.96,6.76,4.76,6.76,4.76s7.88-1.54,12.33-0.42c4.45,1.11,10.56,3.23,10.56,3.23l1.84-11.22l0.25-8.03
	c0,0-5.53,1.81-11.17,2.3c-5.64,0.5-9.18-2.65-9.18-2.65s-1.27-1.69-0.61-3.26c0.65-1.58,1.41-3.03,1.41-3.03h0.22"/>
<path class="st1" d="M375.66,291.67c1.3-0.15,2.02,0.54,2.02,0.54s0.58,1.92,2.31,2.84c1.73,0.92,5.93,2.84,9.04,3
	c3.11,0.15,10.12,0,10.12,0s7.23-1.15,7.88-1.31c0.65-0.15,1.45,0.06,1.81,1.37c0.36,1.31-0.65,1.93-1.01,2.08
	c-0.36,0.15-7.41,1.21-8.99,1.23c-1.57,0.02-9.35,0.19-9.35,0.19s-5.95-1-8.08-1.86c-2.13-0.86-5.01-2.98-5.01-2.98l-2.12-2.94
	c0,0-0.2-1.86,0.58-2.02L375.66,291.67z"/>
<path class="st1" d="M425.49,305.46c0,0,1.34-1.08,1.66-2.23c0.33-1.15,2.28-1,2.28-1s1.19,0.54,1.34,1.42
	c0.14,0.88-1.08,3.69-3.04,4.72c-1.95,1.04-4.99,1.81-5.89,1.54c-0.9-0.27-1.56-0.65-1.66-1.27c-0.11-0.61,0.04-1.65,0.83-1.92
	C421.8,306.45,425.49,305.46,425.49,305.46z"/>
<path class="st1" d="M421.29,263.43c0,0,1.52-0.58,2.35,0.88c0.83,1.46,2.39,4.65,2.86,6.41c0.47,1.77,1.92,6.53,1.92,6.53
	s1.3,4.96,1.16,6.26c-0.15,1.31,0.25,2.23-1.37,2.57c-1.63,0.35-2.24-1.04-2.24-1.04s-0.47-5.3-0.83-6.26
	c-0.36-0.96-1.7-6.57-2.39-7.57c-0.69-1-1.52-3.88-2.21-5.07c-0.69-1.19,0.25-2.46,0.25-2.46L421.29,263.43z"/>
<path class="st1" d="M250.16,277.99c0,0,2.62,12.54-1.46,21.86c-4.08,9.33-12.81,17.43-12.81,17.43l-14.85-6.27
	c0,0-15.58,5.05-27.37,5.5c-11.79,0.46-31.73-0.76-34.64-3.36c-2.91-2.6-3.78-26.6,0-35.77c3.78-9.17,2.62-9.78,5.82-13.61
	c3.2-3.82,3.49-5.96,5.24-8.41c1.75-2.45,2.91-8.87,5.39-10.4c2.47-1.53,3.49-3.06,5.97-3.82c2.47-0.76,8.3-1.38,9.61-1.83
	c1.31-0.46,5.82-2.6,7.86-2.75c2.04-0.15,4.83,4.59,4.83,4.59l7.54,11.01l-9.75,6.11c0,0-6.26-6.27-3.78-7.34
	c2.47-1.07,4.66,2.9,4.66,2.9l4.22-2.29l-7.86-11.16c0,0,0.07-0.54-0.91-0.13c-0.98,0.4-3.38,1.55-4.48,1.84
	c-1.09,0.29-6.11,1.38-7.21,1.55c-1.09,0.17-4.15,0.86-5.4,1.83c-1.26,0.97-3.17,1.66-4.09,4.47c-0.93,2.81-3.11,6.59-3.49,7.4
	c-0.38,0.8-4.48,6.54-5.02,7.68c-0.55,1.15-4.8,9.92-5.9,14.45c-1.09,4.53-2.35,15.36-2.07,17.83c0.27,2.47,1.09,12.84,1.09,12.84
	s10.75,3.32,21.73,3.04c10.97-0.29,20.44-1.49,20.44-1.49s11.65-2.35,14-3.21c2.35-0.86,3.49-1.32,3.49-1.32l13.87,6.25
	c0,0,8.35-7.8,10.43-15.02c2.07-7.22,1.75-5.39,2.07-7.91c0.33-2.52-0.38-10.89-0.38-10.89s-6.28-5.1-12.83-5.39
	c-6.55-0.29-12.66,2.35-12.66,2.35l-5.73,3.78l4.69,2.92c0,0,1.2,1.32,0.05,2.29c-1.15,0.97-2.46,0.57-2.46,0.57
	s-4.2-3.73-9.55-4.19c-5.35-0.46-12.06,0-15.99,1.78c-3.93,1.78-9.17,5.68-10.04,6.65c-0.87,0.97-2.84,2.69-2.84,2.69
	s-2.24,2.98-3.71,1.49c-1.47-1.49,0.11-2.92,0.11-2.92s8.02-7.68,8.79-7.62c0.76,0.06-2.02-14.91-2.02-14.91l0.05-7.17
	c0,0,1.2-10.09,3.77-9.29c2.57,0.8,1.47,2.69,1.47,2.69l-1.04,3.38c0,0,4.8,2.35,7.91,2.69c3.11,0.34,6.22,0.11,8.08-0.52
	c1.86-0.63,0.11-2.98,0.11-2.98"/>
<path class="st1" d="M250.28,278.66l-0.34-1.13l-4.37-2.98c0,0-5.71-3.63-10.88-3.71c-5.17-0.08-7.5,0.23-7.5,0.23
	s-5.68,1.22-8.62,3.17c-2.95,1.95-6.8,4.74-6.8,4.74s-7.93-1.53-12.41-0.42c-4.48,1.11-10.63,3.21-10.63,3.21l-1.86-11.16
	l-0.26-7.99c0,0,5.57,1.8,11.24,2.29c5.68,0.5,9.24-2.64,9.24-2.64s1.27-1.68,0.62-3.25c-0.65-1.57-1.42-3.02-1.42-3.02h-0.22"/>
<path class="st1" d="M219.44,291.59c-1.31-0.15-2.04,0.53-2.04,0.53s-0.58,1.91-2.33,2.83c-1.75,0.92-5.97,2.83-9.1,2.98
	c-3.13,0.15-10.19,0-10.19,0s-7.28-1.15-7.93-1.3c-0.66-0.15-1.46,0.06-1.82,1.37c-0.36,1.31,0.66,1.92,1.02,2.07
	c0.36,0.15,7.46,1.2,9.04,1.22c1.58,0.02,9.41,0.19,9.41,0.19s5.99-0.99,8.13-1.85c2.15-0.86,5.04-2.96,5.04-2.96l2.13-2.92
	c0,0,0.2-1.85-0.58-2.01L219.44,291.59z"/>
<path class="st1" d="M169.3,305.31c0,0-1.35-1.07-1.67-2.22c-0.33-1.15-2.29-0.99-2.29-0.99s-1.2,0.53-1.35,1.41
	c-0.15,0.88,1.09,3.67,3.06,4.7c1.97,1.03,5.02,1.8,5.93,1.53c0.91-0.27,1.56-0.65,1.67-1.26c0.11-0.61-0.04-1.64-0.84-1.91
	C173.01,306.31,169.3,305.31,169.3,305.31z"/>
<path class="st1" d="M173.52,263.5c0,0-1.53-0.57-2.36,0.88c-0.84,1.45-2.4,4.62-2.87,6.38c-0.47,1.76-1.93,6.5-1.93,6.5
	s-1.31,4.93-1.16,6.23c0.15,1.3-0.25,2.22,1.38,2.56c1.64,0.34,2.26-1.03,2.26-1.03s0.47-5.27,0.84-6.23
	c0.36-0.96,1.71-6.54,2.4-7.53c0.69-0.99,1.53-3.86,2.22-5.04c0.69-1.19-0.25-2.45-0.25-2.45L173.52,263.5z"/>
</svg>
