<?xml version="1.0" encoding="utf-8"?>
<!-- Generator: Adobe Illustrator 27.2.0, SVG Export Plug-In . SVG Version: 6.00 Build 0)  -->
<svg version="1.1" id="Capa_1" xmlns="http://www.w3.org/2000/svg" xmlns:xlink="http://www.w3.org/1999/xlink" x="0px" y="0px"
	 viewBox="0 0 595.28 841.89" style="enable-background:new 0 0 595.28 841.89;" xml:space="preserve">
<style type="text/css">
	.st0{fill:none;stroke:#71B62E;stroke-miterlimit:10;}
</style>
<path class="st0" d="M287.79,251.98c-0.43-0.25,0.81-9.56,9.69-9.11c6.85,0.34,9.09,5.77,9.69,7.79c0.14,0.47,0.2,0.97,0.17,1.46
	c-0.14,2.28-1.19,9.26-8.7,9.51C289.65,261.92,287.74,255.61,287.79,251.98z"/>
<path class="st0" d="M283.33,252.19c0,0,1.81-13.57,13.86-12.98c12.05,0.59,14.28,10.03,14.07,12.98c-0.21,2.95-1.41,5.9-1.41,5.9
	l-4.22,4.72c0,0,6.03,2.95,9.04,7.08c3.01,4.13,3.62,7.67,3.62,7.67l0.9,5.07c0,0-0.03,1.42-1.97,1.71
	c-1.95,0.3-1.95-2.06-1.95-2.06s-0.6-6.49-3.01-9.44c-2.41-2.95-8.32-7.85-14.71-7.46c-6.38,0.38-11.8,3.33-14.21,6.87
	c-2.41,3.54-3.62,10.62-3.62,10.62s0,1.18-1.81,1.18c-1.81,0-1.81-1.18-1.81-1.18s0-5.31,1.2-7.67c1.21-2.36,4.22-7.67,6.63-8.85
	c2.41-1.18,5.42-2.95,5.42-2.95s-3.01-2.95-4.22-5.31C283.93,255.73,283.33,252.19,283.33,252.19z"/>
</svg>
